<svg xmlns="http://www.w3.org/2000/svg" width="1090.8563232421875" height="594.1237182617188" viewBox="-324.2673034667969 -136.67874145507812 1090.8563232421875 594.1237182617188"><title>Neo4j Graph Visualization</title><desc>Created using Neo4j (http://www.neo4j.com/)</desc><g class="layer relationships"><g class="relationship" transform="translate(100.18301151115065 380.12126304157186) rotate(273.17347167662706)"><path class="outline" fill="#A5ABB6" stroke="none" d="M 38.50762352901147,10.835724717245364 L 38.766442574113995,9.869798890956295 A 352.3049346151767 352.3049346151767 0 0 0 107.06537568271233,21.13027754069833 L 107.00041975560218,22.128165674475497 A 353.3049346151767 353.3049346151767 0 0 1 38.50762352901147,10.835724717245364 Z M 148.1477419396426,22.40531291658442 L 148.09623382067636,21.406640340771617 A 352.3049346151767 352.3049346151767 0 0 0 216.5406529323122,11.067194723873385 L 215.80330035712808,8.159220999805484 L 223.44881705100133,9.831367669121734 L 217.52378969922438,14.944493022630585 L 216.78643712404025,12.036519298562684 A 353.3049346151767 353.3049346151767 0 0 1 148.1477419396426,22.40531291658442"/><text text-anchor="middle" pointer-events="none" font-size="8px" fill="#000000" x="127.57341028548652" y="25.36629589237492" font-family="sans-serif">FRIENDS</text></g><g class="relationship" transform="translate(426.8496546310761 409.726950530213) rotate(223.0334166622826)"><path class="outline" fill="#A5ABB6" stroke="none" d="M 38.50762352901147,10.835724717245364 L 38.766442574113995,9.869798890956295 A 672.4485263283563 672.4485263283563 0 0 0 189.46387324330675,32.37757539615245 L 189.42915674995197,33.37697259701372 A 673.4485263283563 673.4485263283563 0 0 1 38.50762352901147,10.835724717245364 Z M 230.5662279297746,33.54877635740024 L 230.5398602131689,32.54912404608342 A 672.4485263283563 672.4485263283563 0 0 0 381.4200324856528,11.30084815062276 L 380.66780641401306,8.396686320223935 L 388.3217811018567,10.029680955196513 L 382.42300058117246,15.17306392448786 L 381.6707745095327,12.268902094089034 A 673.4485263283563 673.4485263283563 0 0 1 230.5662279297746,33.54877635740024"/><text text-anchor="middle" pointer-events="none" font-size="8px" fill="#000000" x="209.99846837860386" y="36.27705805015819" transform="rotate(180 209.99846837860386 33.27705805015819)" font-family="sans-serif">FRIENDS</text></g><g class="relationship" transform="translate(114.6994043532517 118.30157937679584) rotate(403.0334166622826)"><path class="outline" fill="#A5ABB6" stroke="none" d="M 38.50762352901147,10.835724717245364 L 38.766442574113995,9.869798890956295 A 672.4485263283563 672.4485263283563 0 0 0 189.46387324330675,32.37757539615245 L 189.42915674995197,33.37697259701372 A 673.4485263283563 673.4485263283563 0 0 1 38.50762352901147,10.835724717245364 Z M 230.5662279297746,33.54877635740024 L 230.5398602131689,32.54912404608342 A 672.4485263283563 672.4485263283563 0 0 0 381.4200324856528,11.30084815062276 L 380.66780641401306,8.396686320223935 L 388.3217811018567,10.029680955196513 L 382.42300058117246,15.17306392448786 L 381.6707745095327,12.268902094089034 A 673.4485263283563 673.4485263283563 0 0 1 230.5662279297746,33.54877635740024"/><text text-anchor="middle" pointer-events="none" font-size="8px" fill="#000000" x="209.99846837860386" y="36.27705805015819" font-family="sans-serif">FRIENDS</text></g><g class="relationship" transform="translate(100.18301151115065 380.12126304157186) rotate(365.17854964747653)"><path class="outline" fill="#A5ABB6" stroke="none" d="M 38.50762352901147,10.835724717245364 L 38.766442574113995,9.869798890956295 A 480.2890658582657 480.2890658582657 0 0 0 139.9488197297769,25.67818869715137 L 139.9006704340988,26.677028847188296 A 481.2890658582657 481.2890658582657 0 0 1 38.50762352901147,10.835724717245364 Z M 181.04356694832563,26.899691074599673 L 181.00623145028445,25.900388287359476 A 480.2890658582657 480.2890658582657 0 0 0 282.3537843299461,11.188075062052091 L 281.6087368606014,8.282063315960375 L 289.25865298238426,9.933966257929686 L 283.3471809557391,15.06275739017438 L 282.6021334863944,12.156745644082664 A 481.2890658582657 481.2890658582657 0 0 1 181.04356694832563,26.899691074599673"/><text text-anchor="middle" pointer-events="none" font-size="8px" fill="#000000" x="160.47244421167474" y="29.728211210663005" font-family="sans-serif">FRIENDS</text></g><g class="relationship" transform="translate(426.8496546310761 409.726950530213) rotate(185.17854964747653)"><path class="outline" fill="#A5ABB6" stroke="none" d="M 38.50762352901147,10.835724717245364 L 38.766442574113995,9.869798890956295 A 480.2890658582657 480.2890658582657 0 0 0 139.9488197297769,25.67818869715137 L 139.9006704340988,26.677028847188296 A 481.2890658582657 481.2890658582657 0 0 1 38.50762352901147,10.835724717245364 Z M 181.04356694832563,26.899691074599673 L 181.00623145028445,25.900388287359476 A 480.2890658582657 480.2890658582657 0 0 0 282.3537843299461,11.188075062052091 L 281.6087368606014,8.282063315960375 L 289.25865298238426,9.933966257929686 L 283.3471809557391,15.06275739017438 L 282.6021334863944,12.156745644082664 A 481.2890658582657 481.2890658582657 0 0 1 181.04356694832563,26.899691074599673"/><text text-anchor="middle" pointer-events="none" font-size="8px" fill="#000000" x="160.47244421167474" y="29.728211210663005" transform="rotate(180 160.47244421167474 26.728211210663005)" font-family="sans-serif">FRIENDS</text></g><g class="relationship" transform="translate(114.6994043532517 118.30157937679584) rotate(453.17347167662706)"><path class="outline" fill="#A5ABB6" stroke="none" d="M 38.50762352901147,10.835724717245364 L 38.766442574113995,9.869798890956295 A 352.3049346151767 352.3049346151767 0 0 0 107.06537568271233,21.13027754069833 L 107.00041975560218,22.128165674475497 A 353.3049346151767 353.3049346151767 0 0 1 38.50762352901147,10.835724717245364 Z M 148.1477419396426,22.40531291658442 L 148.09623382067636,21.406640340771617 A 352.3049346151767 352.3049346151767 0 0 0 216.5406529323122,11.067194723873385 L 215.80330035712808,8.159220999805484 L 223.44881705100133,9.831367669121734 L 217.52378969922438,14.944493022630585 L 216.78643712404025,12.036519298562684 A 353.3049346151767 353.3049346151767 0 0 1 148.1477419396426,22.40531291658442"/><text text-anchor="middle" pointer-events="none" font-size="8px" fill="#000000" x="127.57341028548652" y="25.36629589237492" transform="rotate(180 127.57341028548652 22.36629589237492)" font-family="sans-serif">FRIENDS</text></g><g class="relationship" transform="translate(430.74716228862366 259.5686940633367) rotate(266.30380740991393)"><path class="outline" fill="#A5ABB6" stroke="none" d="M 40 0.5 L 51.53302802712868 0.5 L 51.53302802712868 -0.5 L 40 -0.5 Z M 94.42755927712868 0.5 L 105.96058730425736 0.5 L 105.96058730425736 3.5 L 112.96058730425736 0 L 105.96058730425736 -3.5 L 105.96058730425736 -0.5 L 94.42755927712868 -0.5 Z"/><text text-anchor="middle" pointer-events="none" font-size="8px" fill="#000000" x="72.98029365212868" y="3" transform="rotate(180 72.98029365212868 0)" font-family="sans-serif">REVIEWS</text></g><g class="relationship" transform="translate(267.5486080387058 113.03077089900081) rotate(357.7202164086252)"><path class="outline" fill="#A5ABB6" stroke="none" d="M 40 0.5 L 51.78236531820333 0.5 L 51.78236531820333 -0.5 L 40 -0.5 Z M 94.67689656820333 0.5 L 106.45926188640667 0.5 L 106.45926188640667 3.5 L 113.45926188640667 0 L 106.45926188640667 -3.5 L 106.45926188640667 -0.5 L 94.67689656820333 -0.5 Z"/><text text-anchor="middle" pointer-events="none" font-size="8px" fill="#000000" x="73.22963094320333" y="3" font-family="sans-serif">REVIEWS</text></g><g class="relationship" transform="translate(631.3365918587707 86.76000464073218) rotate(209.5163282351915)"><path class="outline" fill="#A5ABB6" stroke="none" d="M 40 0.5 L 66.02887861643892 0.5 L 66.02887861643892 -0.5 L 40 -0.5 Z M 108.92340986643892 0.5 L 134.95228848287783 0.5 L 134.95228848287783 3.5 L 141.95228848287783 0 L 134.95228848287783 -3.5 L 134.95228848287783 -0.5 L 108.92340986643892 -0.5 Z"/><text text-anchor="middle" pointer-events="none" font-size="8px" fill="#000000" x="87.47614424143892" y="3" transform="rotate(180 87.47614424143892 0)" font-family="sans-serif">REVIEWS</text></g><g class="relationship" transform="translate(217.17238692566292 1.5499555452738178) rotate(359.0073431644305)"><path class="outline" fill="#A5ABB6" stroke="none" d="M 40 0.5 L 102.98520118121839 0.5 L 102.98520118121839 -0.5 L 40 -0.5 Z M 145.87973243121837 0.5 L 208.86493361243677 0.5 L 208.86493361243677 3.5 L 215.86493361243677 0 L 208.86493361243677 -3.5 L 208.86493361243677 -0.5 L 145.87973243121837 -0.5 Z"/><text text-anchor="middle" pointer-events="none" font-size="8px" fill="#000000" x="124.43246680621839" y="3" font-family="sans-serif">REVIEWS</text></g><g class="relationship" transform="translate(-149.22204055181146 165.17957667445768) rotate(267.13505894081646)"><path class="outline" fill="#A5ABB6" stroke="none" d="M 40 0.5 L 96.87220373633994 0.5 L 96.87220373633994 -0.5 L 40 -0.5 Z M 139.76673498633994 0.5 L 196.63893872267988 0.5 L 196.63893872267988 3.5 L 203.63893872267988 0 L 196.63893872267988 -3.5 L 196.63893872267988 -0.5 L 139.76673498633994 -0.5 Z"/><text text-anchor="middle" pointer-events="none" font-size="8px" fill="#000000" x="118.31946936133994" y="3" transform="rotate(180 118.31946936133994 0)" font-family="sans-serif">REVIEWS</text></g><g class="relationship" transform="translate(611.7248873451407 374.70500822329996) rotate(283.7836057002676)"><path class="outline" fill="#A5ABB6" stroke="none" d="M 40 0.5 L 207.710673386256 0.5 L 207.710673386256 -0.5 L 40 -0.5 Z M 250.605204636256 0.5 L 418.315878022512 0.5 L 418.315878022512 3.5 L 425.315878022512 0 L 418.315878022512 -3.5 L 418.315878022512 -0.5 L 250.605204636256 -0.5 Z"/><text text-anchor="middle" pointer-events="none" font-size="8px" fill="#000000" x="229.157939011256" y="3" font-family="sans-serif">REVIEWS</text></g><g class="relationship" transform="translate(-93.39827141936372 379.45225763511195) rotate(538.5039746767968)"><path class="outline" fill="#A5ABB6" stroke="none" d="M 40 0.5 L 68.51911394630075 0.5 L 68.51911394630075 -0.5 L 40 -0.5 Z M 111.41364519630075 0.5 L 139.9327591426015 0.5 L 139.9327591426015 3.5 L 146.9327591426015 0 L 139.9327591426015 -3.5 L 139.9327591426015 -0.5 L 111.41364519630075 -0.5 Z"/><text text-anchor="middle" pointer-events="none" font-size="8px" fill="#000000" x="89.96637957130075" y="3" transform="rotate(180 89.96637957130075 0)" font-family="sans-serif">REVIEWS</text></g><g class="relationship" transform="translate(-280.2673123806177 384.33262349097186) rotate(324.7194012584637)"><path class="outline" fill="#A5ABB6" stroke="none" d="M 40 0.5 L 65.24755468661245 0.5 L 65.24755468661245 -0.5 L 40 -0.5 Z M 127.85302343661245 0.5 L 153.1005781232249 0.5 L 153.1005781232249 3.5 L 160.1005781232249 0 L 153.1005781232249 -3.5 L 153.1005781232249 -0.5 L 127.85302343661245 -0.5 Z"/><text text-anchor="middle" pointer-events="none" font-size="8px" fill="#000000" x="96.55028906161245" y="3" font-family="sans-serif">IN_CATEGORY</text></g><g class="relationship" transform="translate(722.5889883904686 -77.21093245513259) rotate(181.64523821552757)"><path class="outline" fill="#A5ABB6" stroke="none" d="M 40 0.5 L 234.56902239220983 0.5 L 234.56902239220983 -0.5 L 40 -0.5 Z M 297.17449114220983 0.5 L 491.74351353441966 0.5 L 491.74351353441966 3.5 L 498.74351353441966 0 L 491.74351353441966 -3.5 L 491.74351353441966 -0.5 L 297.17449114220983 -0.5 Z"/><text text-anchor="middle" pointer-events="none" font-size="8px" fill="#000000" x="265.87175676720983" y="3" transform="rotate(180 265.87175676720983 0)" font-family="sans-serif">IN_CATEGORY</text></g><g class="relationship" transform="translate(-161.39955820795058 -78.1548444945339) rotate(357.59262857608564)"><path class="outline" fill="#A5ABB6" stroke="none" d="M 40 0.5 L 138.08341195406808 0.5 L 138.08341195406808 -0.5 L 40 -0.5 Z M 200.68888070406808 0.5 L 298.77229265813617 0.5 L 298.77229265813617 3.5 L 305.77229265813617 0 L 298.77229265813617 -3.5 L 298.77229265813617 -0.5 L 200.68888070406808 -0.5 Z"/><text text-anchor="middle" pointer-events="none" font-size="8px" fill="#000000" x="169.38614632906808" y="3" font-family="sans-serif">IN_CATEGORY</text></g><g class="relationship" transform="translate(472.99892127225644 -2.8827159638595106) rotate(197.26454861825266)"><path class="outline" fill="#A5ABB6" stroke="none" d="M 40 0.5 L 116.47899909705092 0.5 L 116.47899909705092 -0.5 L 40 -0.5 Z M 179.08446784705092 0.5 L 255.56346694410183 0.5 L 255.56346694410183 3.5 L 262.56346694410183 0 L 255.56346694410183 -3.5 L 255.56346694410183 -0.5 L 179.08446784705092 -0.5 Z"/><text text-anchor="middle" pointer-events="none" font-size="8px" fill="#000000" x="147.78173347205092" y="3" transform="rotate(180 147.78173347205092 0)" font-family="sans-serif">IN_CATEGORY</text></g><g class="relationship" transform="translate(420.8864058655313 106.92627940991287) rotate(220.12618304234456)"><path class="outline" fill="#A5ABB6" stroke="none" d="M 40 0.5 L 120.05633266492848 0.5 L 120.05633266492848 -0.5 L 40 -0.5 Z M 182.66180141492848 0.5 L 262.71813407985695 0.5 L 262.71813407985695 3.5 L 269.71813407985695 0 L 262.71813407985695 -3.5 L 262.71813407985695 -0.5 L 182.66180141492848 -0.5 Z"/><text text-anchor="middle" pointer-events="none" font-size="8px" fill="#000000" x="151.35906703992848" y="3" transform="rotate(180 151.35906703992848 0)" font-family="sans-serif">IN_CATEGORY</text></g><g class="relationship" transform="translate(114.6994043532517 118.30157937679584) rotate(358.02501122028673)"><path class="outline" fill="#A5ABB6" stroke="none" d="M 40 0.5 L 55.083308857695826 0.5 L 55.083308857695826 -0.5 L 40 -0.5 Z M 90.85674635769583 0.5 L 105.94005521539165 0.5 L 105.94005521539165 3.5 L 112.94005521539165 0 L 105.94005521539165 -3.5 L 105.94005521539165 -0.5 L 90.85674635769583 -0.5 Z"/><text text-anchor="middle" pointer-events="none" font-size="8px" fill="#000000" x="72.97002760769583" y="3" font-family="sans-serif">WROTE</text></g><g class="relationship" transform="translate(114.6994043532517 118.30157937679584) rotate(311.2734477507975)"><path class="outline" fill="#A5ABB6" stroke="none" d="M 40 0.5 L 56.28511305629725 0.5 L 56.28511305629725 -0.5 L 40 -0.5 Z M 92.05855055629725 0.5 L 108.3436636125945 0.5 L 108.3436636125945 3.5 L 115.3436636125945 0 L 108.3436636125945 -3.5 L 108.3436636125945 -0.5 L 92.05855055629725 -0.5 Z"/><text text-anchor="middle" pointer-events="none" font-size="8px" fill="#000000" x="74.17183180629725" y="3" font-family="sans-serif">WROTE</text></g><g class="relationship" transform="translate(426.8496546310761 409.726950530213) rotate(271.4868353943901)"><path class="outline" fill="#A5ABB6" stroke="none" d="M 40 0.5 L 53.71769615204295 0.5 L 53.71769615204295 -0.5 L 40 -0.5 Z M 89.49113365204295 0.5 L 103.2088298040859 0.5 L 103.2088298040859 3.5 L 110.2088298040859 0 L 103.2088298040859 -3.5 L 103.2088298040859 -0.5 L 89.49113365204295 -0.5 Z"/><text text-anchor="middle" pointer-events="none" font-size="8px" fill="#000000" x="71.60441490204295" y="3" font-family="sans-serif">WROTE</text></g><g class="relationship" transform="translate(426.8496546310761 409.726950530213) rotate(302.3399984196215)"><path class="outline" fill="#A5ABB6" stroke="none" d="M 40 0.5 L 169.743181863393 0.5 L 169.743181863393 -0.5 L 40 -0.5 Z M 205.516619363393 0.5 L 335.259801226786 0.5 L 335.259801226786 3.5 L 342.259801226786 0 L 335.259801226786 -3.5 L 335.259801226786 -0.5 L 205.516619363393 -0.5 Z"/><text text-anchor="middle" pointer-events="none" font-size="8px" fill="#000000" x="187.629900613393" y="3" font-family="sans-serif">WROTE</text></g><g class="relationship" transform="translate(426.8496546310761 409.726950530213) rotate(349.2732496507098)"><path class="outline" fill="#A5ABB6" stroke="none" d="M 40 0.5 L 72.69487896446844 0.5 L 72.69487896446844 -0.5 L 40 -0.5 Z M 108.46831646446844 0.5 L 141.1631954289369 0.5 L 141.1631954289369 3.5 L 148.1631954289369 0 L 141.1631954289369 -3.5 L 141.1631954289369 -0.5 L 108.46831646446844 -0.5 Z"/><text text-anchor="middle" pointer-events="none" font-size="8px" fill="#000000" x="90.58159771446844" y="3" font-family="sans-serif">WROTE</text></g><g class="relationship" transform="translate(100.18301151115065 380.12126304157186) rotate(220.75534510348723)"><path class="outline" fill="#A5ABB6" stroke="none" d="M 40 0.5 L 143.23619014550255 0.5 L 143.23619014550255 -0.5 L 40 -0.5 Z M 179.00962764550255 0.5 L 282.2458177910051 0.5 L 282.2458177910051 3.5 L 289.2458177910051 0 L 282.2458177910051 -3.5 L 282.2458177910051 -0.5 L 179.00962764550255 -0.5 Z"/><text text-anchor="middle" pointer-events="none" font-size="8px" fill="#000000" x="161.12290889550255" y="3" transform="rotate(180 161.12290889550255 0)" font-family="sans-serif">WROTE</text></g><g class="relationship" transform="translate(100.18301151115065 380.12126304157186) rotate(180.19801001976663)"><path class="outline" fill="#A5ABB6" stroke="none" d="M 40 0.5 L 75.40450072426033 0.5 L 75.40450072426033 -0.5 L 40 -0.5 Z M 111.17793822426033 0.5 L 146.58243894852066 0.5 L 146.58243894852066 3.5 L 153.58243894852066 0 L 146.58243894852066 -3.5 L 146.58243894852066 -0.5 L 111.17793822426033 -0.5 Z"/><text text-anchor="middle" pointer-events="none" font-size="8px" fill="#000000" x="93.29121947426033" y="3" transform="rotate(180 93.29121947426033 0)" font-family="sans-serif">WROTE</text></g><g class="relationship" transform="translate(114.6994043532517 118.30157937679584) rotate(215.87939942648535)"><path class="outline" fill="#A5ABB6" stroke="none" d="M 40 0.5 L 59.39632915642089 0.5 L 59.39632915642089 -0.5 L 40 -0.5 Z M 95.16976665642089 0.5 L 114.56609581284178 0.5 L 114.56609581284178 3.5 L 121.56609581284178 0 L 114.56609581284178 -3.5 L 114.56609581284178 -0.5 L 95.16976665642089 -0.5 Z"/><text text-anchor="middle" pointer-events="none" font-size="8px" fill="#000000" x="77.28304790642089" y="3" transform="rotate(180 77.28304790642089 0)" font-family="sans-serif">WROTE</text></g><g class="relationship" transform="translate(-16.20991528339856 23.610749047382694) rotate(215.02718873726576)"><path class="outline" fill="#A5ABB6" stroke="none" d="M 40 0.5 L 63.704114005406055 0.5 L 63.704114005406055 -0.5 L 40 -0.5 Z M 106.59864525540605 0.5 L 130.3027592608121 0.5 L 130.3027592608121 3.5 L 137.3027592608121 0 L 130.3027592608121 -3.5 L 130.3027592608121 -0.5 L 106.59864525540605 -0.5 Z"/><text text-anchor="middle" pointer-events="none" font-size="8px" fill="#000000" x="85.15137963040605" y="3" transform="rotate(180 85.15137963040605 0)" font-family="sans-serif">REVIEWS</text></g></g><g class="layer nodes"><g class="node" transform="translate(100.18301151115065,380.12126304157186)"><circle class="outline" cx="0" cy="0" r="40" fill="#DE9BF9" stroke="#BF85D6" stroke-width="2px"/><text text-anchor="middle" pointer-events="none" font-family="sans-serif" dy="2.5" font-size="40" fill="#000000"/><text text-anchor="middle" pointer-events="none" y="5" font-size="10px" fill="#000000" font-family="sans-serif"> Arya</text></g><g class="node" transform="translate(114.6994043532517,118.30157937679584)"><circle class="outline" cx="0" cy="0" r="40" fill="#DE9BF9" stroke="#BF85D6" stroke-width="2px"/><text text-anchor="middle" pointer-events="none" font-family="sans-serif" dy="2.5" font-size="40" fill="#000000"/><text text-anchor="middle" pointer-events="none" y="5" font-size="10px" fill="#000000" font-family="sans-serif"> Mark</text></g><g class="node" transform="translate(426.8496546310761,409.726950530213)"><circle class="outline" cx="0" cy="0" r="40" fill="#DE9BF9" stroke="#BF85D6" stroke-width="2px"/><text text-anchor="middle" pointer-events="none" font-family="sans-serif" dy="2.5" font-size="40" fill="#000000"/><text text-anchor="middle" pointer-events="none" y="5" font-size="10px" fill="#000000" font-family="sans-serif"> Praveena</text></g><g class="node" transform="translate(430.74716228862366,259.5686940633367)"><circle class="outline" cx="0" cy="0" r="40" fill="#FF756E" stroke="#E06760" stroke-width="2px"/><text text-anchor="middle" pointer-events="none" font-family="sans-serif" dy="2.5" font-size="40" fill="#000000"/><text text-anchor="middle" pointer-events="none" y="5" font-size="10px" fill="#000000" font-family="sans-serif"> It was ok</text></g><g class="node" transform="translate(420.8864058655313,106.92627940991287)"><circle class="outline" cx="0" cy="0" r="40" fill="#68BDF6" stroke="#5CA8DB" stroke-width="2px"/><text text-anchor="middle" pointer-events="none" font-family="sans-serif" dy="2.5" font-size="40" fill="#000000"/><text text-anchor="middle" pointer-events="none" y="5" font-size="10px" fill="#000000" font-family="sans-serif"> Hotel 1</text></g><g class="node" transform="translate(267.5486080387058,113.03077089900081)"><circle class="outline" cx="0" cy="0" r="40" fill="#FF756E" stroke="#E06760" stroke-width="2px"/><text text-anchor="middle" pointer-events="none" font-family="sans-serif" dy="2.5" font-size="40" fill="#000000"/><text text-anchor="middle" pointer-events="none" y="5" font-size="10px" fill="#000000" font-family="sans-serif"> Really great</text></g><g class="node" transform="translate(631.3365918587707,86.76000464073218)"><circle class="outline" cx="0" cy="0" r="40" fill="#FF756E" stroke="#E06760" stroke-width="2px"/><text text-anchor="middle" pointer-events="none" font-family="sans-serif" dy="2.5" font-size="40" fill="#000000"/><text text-anchor="middle" pointer-events="none" y="5" font-size="10px" fill="#000000" font-family="sans-serif"> Average</text></g><g class="node" transform="translate(472.99892127225644,-2.8827159638595106)"><circle class="outline" cx="0" cy="0" r="40" fill="#68BDF6" stroke="#5CA8DB" stroke-width="2px"/><text text-anchor="middle" pointer-events="none" font-family="sans-serif" dy="2.5" font-size="40" fill="#000000"/><text text-anchor="middle" pointer-events="none" y="5" font-size="10px" fill="#000000" font-family="sans-serif"> Hotel 2</text></g><g class="node" transform="translate(217.17238692566292,1.5499555452738178)"><circle class="outline" cx="0" cy="0" r="40" fill="#FF756E" stroke="#E06760" stroke-width="2px"/><text text-anchor="middle" pointer-events="none" font-family="sans-serif" dy="2.5" font-size="40" fill="#000000"/><text text-anchor="middle" pointer-events="none" y="5" font-size="10px" fill="#000000" font-family="sans-serif"> Not bad</text></g><g class="node" transform="translate(-149.22204055181146,165.17957667445768)"><circle class="outline" cx="0" cy="0" r="40" fill="#FF756E" stroke="#E06760" stroke-width="2px"/><text text-anchor="middle" pointer-events="none" font-family="sans-serif" dy="2.5" font-size="40" fill="#000000"/><text text-anchor="middle" pointer-events="none" y="5" font-size="10px" fill="#000000" font-family="sans-serif"> Great ambience</text></g><g class="node" transform="translate(-161.39955820795058,-78.1548444945339)"><circle class="outline" cx="0" cy="0" r="40" fill="#68BDF6" stroke="#5CA8DB" stroke-width="2px"/><text text-anchor="middle" pointer-events="none" font-family="sans-serif" dy="2.5" font-size="40" fill="#000000"/><text text-anchor="middle" pointer-events="none" y="5" font-size="10px" fill="#000000" font-family="sans-serif"> Hotel 3</text></g><g class="node" transform="translate(611.7248873451407,374.70500822329996)"><circle class="outline" cx="0" cy="0" r="40" fill="#FF756E" stroke="#E06760" stroke-width="2px"/><text text-anchor="middle" pointer-events="none" font-family="sans-serif" dy="2.5" font-size="40" fill="#000000"/><text text-anchor="middle" pointer-events="none" y="5" font-size="10px" fill="#000000" font-family="sans-serif"> I liked it</text></g><g class="node" transform="translate(722.5889883904686,-77.21093245513259)"><circle class="outline" cx="0" cy="0" r="40" fill="#68BDF6" stroke="#5CA8DB" stroke-width="2px"/><text text-anchor="middle" pointer-events="none" font-family="sans-serif" dy="2.5" font-size="40" fill="#000000"/><text text-anchor="middle" pointer-events="none" y="5" font-size="10px" fill="#000000" font-family="sans-serif"> Hotel 4</text></g><g class="node" transform="translate(-93.39827141936372,379.45225763511195)"><circle class="outline" cx="0" cy="0" r="40" fill="#FF756E" stroke="#E06760" stroke-width="2px"/><text text-anchor="middle" pointer-events="none" font-family="sans-serif" dy="2.5" font-size="40" fill="#000000"/><text text-anchor="middle" pointer-events="none" y="5" font-size="10px" fill="#000000" font-family="sans-serif"> Loved it!</text></g><g class="node" transform="translate(-280.2673123806177,384.33262349097186)"><circle class="outline" cx="0" cy="0" r="40" fill="#68BDF6" stroke="#5CA8DB" stroke-width="2px"/><text text-anchor="middle" pointer-events="none" font-family="sans-serif" dy="2.5" font-size="40" fill="#000000"/><text text-anchor="middle" pointer-events="none" y="5" font-size="10px" fill="#000000" font-family="sans-serif"> Restaurant 1</text></g><g class="node" transform="translate(-116.91856411164287,268.7582846254264)"><circle class="outline" cx="0" cy="0" r="40" fill="#FFD86E" stroke="#EDBA39" stroke-width="2px"/><text text-anchor="middle" pointer-events="none" font-family="sans-serif" dy="2.5" font-size="40" fill="#000000"/><text text-anchor="middle" pointer-events="none" y="5" font-size="10px" fill="#000000" font-family="sans-serif"> Restaurants</text></g><g class="node" transform="translate(184.06756768187256,-92.67873169765008)"><circle class="outline" cx="0" cy="0" r="40" fill="#FFD86E" stroke="#EDBA39" stroke-width="2px"/><text text-anchor="middle" pointer-events="none" font-family="sans-serif" dy="2.5" font-size="40" fill="#000000"/><text text-anchor="middle" pointer-events="none" y="5" font-size="10px" fill="#000000" font-family="sans-serif"> Hotels</text></g><g class="node" transform="translate(-16.20991528339856,23.610749047382694)"><circle class="outline" cx="0" cy="0" r="40" fill="#FF756E" stroke="#E06760" stroke-width="2px"/><text text-anchor="middle" pointer-events="none" font-family="sans-serif" dy="2.5" font-size="40" fill="#000000"/><text text-anchor="middle" pointer-events="none" y="5" font-size="10px" fill="#000000" font-family="sans-serif"> Decent food</text></g></g></svg>
