<svg xmlns="http://www.w3.org/2000/svg" width="315.6873779296875" height="88.98410034179688" viewBox="-8.326446533203125 63.36784362792969 315.6873779296875 88.98410034179688"><title>Neo4j Graph Visualization</title><desc>Created using Neo4j (http://www.neo4j.com/)</desc><g class="layer relationships"><g class="relationship" transform="translate(35.67355203508019 107.36784079623521) rotate(360.2476406690871)"><path class="outline" fill="#A5ABB6" stroke="none" d="M 38.50762352901147,10.835724717245364 L 38.766442574113995,9.869798890956295 A 284.91321803182325 284.91321803182325 0 0 0 89.80922098330416,18.6723935972027 L 89.7295539577597,19.66921512839116 A 285.91321803182325 285.91321803182325 0 0 1 38.50762352901147,10.835724717245364 Z M 130.8780320383683,19.98719231863754 L 130.81377959644684,18.989258641629306 A 284.91321803182325 284.91321803182325 0 0 0 181.9864992901985,10.976539974606967 L 181.25491768614415,8.067109041140892 L 188.89710173562838,9.754421387391186 L 182.96194142893762,14.855781219228401 L 182.23035982488327,11.946350285762326 A 285.91321803182325 285.91321803182325 0 0 1 130.8780320383683,19.98719231863754"/><text text-anchor="middle" pointer-events="none" font-size="8px" fill="#000000" x="110.3019286764528" y="23.069460012666696" font-family="sans-serif">FRIENDS</text></g><g class="relationship" transform="translate(263.3609394934162 108.35194483602253) rotate(180.2476406690871)"><path class="outline" fill="#A5ABB6" stroke="none" d="M 38.50762352901147,10.835724717245364 L 38.766442574113995,9.869798890956295 A 284.91321803182325 284.91321803182325 0 0 0 89.80922098330416,18.6723935972027 L 89.7295539577597,19.66921512839116 A 285.91321803182325 285.91321803182325 0 0 1 38.50762352901147,10.835724717245364 Z M 130.8780320383683,19.98719231863754 L 130.81377959644684,18.989258641629306 A 284.91321803182325 284.91321803182325 0 0 0 181.9864992901985,10.976539974606967 L 181.25491768614415,8.067109041140892 L 188.89710173562838,9.754421387391186 L 182.96194142893762,14.855781219228401 L 182.23035982488327,11.946350285762326 A 285.91321803182325 285.91321803182325 0 0 1 130.8780320383683,19.98719231863754"/><text text-anchor="middle" pointer-events="none" font-size="8px" fill="#000000" x="110.3019286764528" y="23.069460012666696" transform="rotate(180 110.3019286764528 20.069460012666696)" font-family="sans-serif">FRIENDS</text></g></g><g class="layer nodes"><g class="node" transform="translate(263.3609394934162,108.35194483602253)"><circle class="outline" cx="0" cy="0" r="40" fill="#DE9BF9" stroke="#BF85D6" stroke-width="2px"/><text text-anchor="middle" pointer-events="none" font-family="sans-serif" dy="2.5" font-size="40" fill="#FFFFFF"/><text text-anchor="middle" pointer-events="none" y="5" font-size="10px" fill="#FFFFFF" font-family="sans-serif"> Mark</text></g><g class="node" transform="translate(35.67355203508019,107.36784079623521)"><circle class="outline" cx="0" cy="0" r="40" fill="#DE9BF9" stroke="#BF85D6" stroke-width="2px"/><text text-anchor="middle" pointer-events="none" font-family="sans-serif" dy="2.5" font-size="40" fill="#FFFFFF"/><text text-anchor="middle" pointer-events="none" y="5" font-size="10px" fill="#FFFFFF" font-family="sans-serif"> Praveena</text></g></g></svg>