<svg xmlns="http://www.w3.org/2000/svg" width="512.9422607421875" height="593.3743286132812" viewBox="-170.58538818359375 -260.2928466796875 512.9422607421875 593.3743286132812"><title>Neo4j Graph Visualization</title><desc>Created using Neo4j (http://www.neo4j.com/)</desc><g class="layer relationships"><g class="relationship" transform="translate(157.51579966250225 139.69709316809607) rotate(305.2987413832726)"><path class="outline" fill="#A5ABB6" stroke="none" d="M 40 0.5 L 59.28033587518006 0.5 L 59.28033587518006 -0.5 L 40 -0.5 Z M 74.17877337518006 0.5 L 93.45910925036011 0.5 L 93.45910925036011 3.5 L 100.45910925036011 0 L 93.45910925036011 -3.5 L 93.45910925036011 -0.5 L 74.17877337518006 -0.5 Z"/><text text-anchor="middle" pointer-events="none" font-size="8px" fill="#000000" x="66.72955462518006" y="3" font-family="sans-serif">22</text></g><g class="relationship" transform="translate(156.29671421005034 287.9477351838312) rotate(270.47114046874606)"><path class="outline" fill="#A5ABB6" stroke="none" d="M 40 0.5 L 63.17860839240656 0.5 L 63.17860839240656 -0.5 L 40 -0.5 Z M 78.07704589240656 0.5 L 101.25565428481312 0.5 L 101.25565428481312 3.5 L 108.25565428481312 0 L 101.25565428481312 -3.5 L 101.25565428481312 -0.5 L 78.07704589240656 -0.5 Z"/><text text-anchor="middle" pointer-events="none" font-size="8px" fill="#000000" x="70.62782714240656" y="3" font-family="sans-serif">32</text></g><g class="relationship" transform="translate(-3.3719893429822463 289.08147357338146) rotate(359.59317429347004)"><path class="outline" fill="#A5ABB6" stroke="none" d="M 40 0.5 L 66.66253617260898 0.5 L 66.66253617260898 -0.5 L 40 -0.5 Z M 86.01019242260898 0.5 L 112.67272859521796 0.5 L 112.67272859521796 3.5 L 119.67272859521796 0 L 112.67272859521796 -3.5 L 112.67272859521796 -0.5 L 86.01019242260898 -0.5 Z"/><text text-anchor="middle" pointer-events="none" font-size="8px" fill="#000000" x="76.33636429760898" y="3" font-family="sans-serif">106</text></g><g class="relationship" transform="translate(-4.174337865628871 139.45345428201895) rotate(449.6927664774884)"><path class="outline" fill="#A5ABB6" stroke="none" d="M 40 0.5 L 61.641257118900086 0.5 L 61.641257118900086 -0.5 L 40 -0.5 Z M 80.98891336890009 0.5 L 102.63017048780017 0.5 L 102.63017048780017 3.5 L 109.63017048780017 0 L 102.63017048780017 -3.5 L 102.63017048780017 -0.5 L 80.98891336890009 -0.5 Z"/><text text-anchor="middle" pointer-events="none" font-size="8px" fill="#000000" x="71.31508524390009" y="3" font-family="sans-serif">277</text></g><g class="relationship" transform="translate(186.57201944459018 -216.29285959799) rotate(458.31959223574904)"><path class="outline" fill="#A5ABB6" stroke="none" d="M 40 0.5 L 51.79039849551168 0.5 L 51.79039849551168 -0.5 L 40 -0.5 Z M 66.68883599551168 0.5 L 78.47923449102336 0.5 L 78.47923449102336 3.5 L 85.47923449102336 0 L 78.47923449102336 -3.5 L 78.47923449102336 -0.5 L 66.68883599551168 -0.5 Z"/><text text-anchor="middle" pointer-events="none" font-size="8px" fill="#000000" x="59.23961724551168" y="3" transform="rotate(180 59.23961724551168 0)" font-family="sans-serif">26</text></g><g class="relationship" transform="translate(298.3568961816578 -92.90990473575572) rotate(539.6579330784618)"><path class="outline" fill="#A5ABB6" stroke="none" d="M 40 0.5 L 54.022458822416695 0.5 L 54.022458822416695 -0.5 L 40 -0.5 Z M 68.9208963224167 0.5 L 82.94335514483339 0.5 L 82.94335514483339 3.5 L 89.94335514483339 0 L 82.94335514483339 -3.5 L 82.94335514483339 -0.5 L 68.9208963224167 -0.5 Z"/><text text-anchor="middle" pointer-events="none" font-size="8px" fill="#000000" x="61.471677572416695" y="3" transform="rotate(180 61.471677572416695 0)" font-family="sans-serif">33</text></g><g class="relationship" transform="translate(27.687605223754446 -94.01314648623449) rotate(360.7649761656246)"><path class="outline" fill="#A5ABB6" stroke="none" d="M 40 0.5 L 59.42117902476798 0.5 L 59.42117902476798 -0.5 L 40 -0.5 Z M 74.31961652476798 0.5 L 93.74079554953596 0.5 L 93.74079554953596 3.5 L 100.74079554953596 0 L 93.74079554953596 -3.5 L 93.74079554953596 -0.5 L 74.31961652476798 -0.5 Z"/><text text-anchor="middle" pointer-events="none" font-size="8px" fill="#000000" x="66.87039777476798" y="3" font-family="sans-serif">25</text></g><g class="relationship" transform="translate(186.57201944459018 -216.29285959799) rotate(502.4176057998213)"><path class="outline" fill="#A5ABB6" stroke="none" d="M 40 0.5 L 89.29621172065954 0.5 L 89.29621172065954 -0.5 L 40 -0.5 Z M 104.19464922065954 0.5 L 153.49086094131908 0.5 L 153.49086094131908 3.5 L 160.49086094131908 0 L 153.49086094131908 -3.5 L 153.49086094131908 -0.5 L 104.19464922065954 -0.5 Z"/><text text-anchor="middle" pointer-events="none" font-size="8px" fill="#000000" x="96.74543047065954" y="3" transform="rotate(180 96.74543047065954 0)" font-family="sans-serif">32</text></g><g class="relationship" transform="translate(-126.58538891038899 -93.36608455472305) rotate(387.46476430371206)"><path class="outline" fill="#A5ABB6" stroke="none" d="M 40 0.5 L 117.1947488726957 0.5 L 117.1947488726957 -0.5 L 40 -0.5 Z M 132.0931863726957 0.5 L 209.2879352453914 0.5 L 209.2879352453914 3.5 L 216.2879352453914 0 L 209.2879352453914 -3.5 L 209.2879352453914 -0.5 L 132.0931863726957 -0.5 Z"/><text text-anchor="middle" pointer-events="none" font-size="8px" fill="#000000" x="124.6439676226957" y="3" font-family="sans-serif">46</text></g><g class="relationship" transform="translate(27.687605223754446 -94.01314648623449) rotate(418.3950205034755)"><path class="outline" fill="#A5ABB6" stroke="none" d="M 40 0.5 L 58.82325491042167 0.5 L 58.82325491042167 -0.5 L 40 -0.5 Z M 73.72169241042167 0.5 L 92.54494732084333 0.5 L 92.54494732084333 3.5 L 99.54494732084333 0 L 92.54494732084333 -3.5 L 92.54494732084333 -0.5 L 73.72169241042167 -0.5 Z"/><text text-anchor="middle" pointer-events="none" font-size="8px" fill="#000000" x="66.27247366042167" y="3" font-family="sans-serif">35</text></g><g class="relationship" transform="translate(-126.58538891038899 -93.36608455472305) rotate(338.568012228449)"><path class="outline" fill="#A5ABB6" stroke="none" d="M 40 0.5 L 157.26088382275358 0.5 L 157.26088382275358 -0.5 L 40 -0.5 Z M 172.15932132275358 0.5 L 289.42020514550717 0.5 L 289.42020514550717 3.5 L 296.42020514550717 0 L 289.42020514550717 -3.5 L 289.42020514550717 -0.5 L 172.15932132275358 -0.5 Z"/><text text-anchor="middle" pointer-events="none" font-size="8px" fill="#000000" x="164.71010257275358" y="3" font-family="sans-serif">59</text></g><g class="relationship" transform="translate(298.3568961816578 -92.90990473575572) rotate(227.82344288815517)"><path class="outline" fill="#A5ABB6" stroke="none" d="M 40 0.5 L 72.2962198902906 0.5 L 72.2962198902906 -0.5 L 40 -0.5 Z M 87.1946573902906 0.5 L 119.4908772805812 0.5 L 119.4908772805812 3.5 L 126.4908772805812 0 L 119.4908772805812 -3.5 L 119.4908772805812 -0.5 L 87.1946573902906 -0.5 Z"/><text text-anchor="middle" pointer-events="none" font-size="8px" fill="#000000" x="79.7454386402906" y="3" transform="rotate(180 79.7454386402906 0)" font-family="sans-serif">27</text></g><g class="relationship" transform="translate(-126.58538891038899 -93.36608455472305) rotate(423.9740291191019)"><path class="outline" fill="#A5ABB6" stroke="none" d="M 40 0.5 L 53.06479983436124 0.5 L 53.06479983436124 -0.5 L 40 -0.5 Z M 72.41245608436124 0.5 L 85.47725591872248 0.5 L 85.47725591872248 3.5 L 92.47725591872248 0 L 85.47725591872248 -3.5 L 85.47725591872248 -0.5 L 72.41245608436124 -0.5 Z"/><text text-anchor="middle" pointer-events="none" font-size="8px" fill="#000000" x="62.73862795936124" y="3" font-family="sans-serif">369</text></g><g class="relationship" transform="translate(-68.45721664461482 25.67734837962732) rotate(420.5337887991254)"><path class="outline" fill="#A5ABB6" stroke="none" d="M 40 0.5 L 54.39083553989565 0.5 L 54.39083553989565 -0.5 L 40 -0.5 Z M 69.28927303989565 0.5 L 83.6801085797913 0.5 L 83.6801085797913 3.5 L 90.6801085797913 0 L 83.6801085797913 -3.5 L 83.6801085797913 -0.5 L 69.28927303989565 -0.5 Z"/><text text-anchor="middle" pointer-events="none" font-size="8px" fill="#000000" x="61.84005428989565" y="3" font-family="sans-serif">74</text></g><g class="relationship" transform="translate(238.678648672502 25.061351307258555) rotate(296.83352950083383)"><path class="outline" fill="#A5ABB6" stroke="none" d="M 40 0.5 L 52.92970899316505 0.5 L 52.92970899316505 -0.5 L 40 -0.5 Z M 72.27736524316505 0.5 L 85.2070742363301 0.5 L 85.2070742363301 3.5 L 92.2070742363301 0 L 85.2070742363301 -3.5 L 85.2070742363301 -0.5 L 72.27736524316505 -0.5 Z"/><text text-anchor="middle" pointer-events="none" font-size="8px" fill="#000000" x="62.60353711816505" y="3" font-family="sans-serif">207</text></g></g><g class="layer nodes"><g class="node" transform="translate(157.51579966250225,139.69709316809607)"><circle class="outline" cx="0" cy="0" r="40" fill="#68BDF6" stroke="#5CA8DB" stroke-width="2px"/><text text-anchor="middle" pointer-events="none" font-family="sans-serif" dy="2.5" font-size="40" fill="#FFFFFF"/><text text-anchor="middle" pointer-events="none" y="5" font-size="10px" fill="#FFFFFF" font-family="sans-serif"> Ipswich (10)</text></g><g class="node" transform="translate(238.678648672502,25.061351307258555)"><circle class="outline" cx="0" cy="0" r="40" fill="#68BDF6" stroke="#5CA8DB" stroke-width="2px"/><text text-anchor="middle" pointer-events="none" font-family="sans-serif" dy="2.5" font-size="40" fill="#FFFFFF"/><text text-anchor="middle" pointer-events="none" y="5" font-size="10px" fill="#FFFFFF" font-family="sans-serif"> Felixstowe (8)</text></g><g class="node" transform="translate(156.29671421005034,287.9477351838312)"><circle class="outline" cx="0" cy="0" r="40" fill="#68BDF6" stroke="#5CA8DB" stroke-width="2px"/><text text-anchor="middle" pointer-events="none" font-family="sans-serif" dy="2.5" font-size="40" fill="#FFFFFF"/><text text-anchor="middle" pointer-events="none" y="5" font-size="10px" fill="#FFFFFF" font-family="sans-serif"> Colchester (12)</text></g><g class="node" transform="translate(-3.3719893429822463,289.08147357338146)"><circle class="outline" cx="0" cy="0" r="40" fill="#68BDF6" stroke="#5CA8DB" stroke-width="2px"/><text text-anchor="middle" pointer-events="none" font-family="sans-serif" dy="2.5" font-size="40" fill="#FFFFFF"/><text text-anchor="middle" pointer-events="none" y="5" font-size="10px" fill="#FFFFFF" font-family="sans-serif"> London (11)</text></g><g class="node" transform="translate(-4.174337865628871,139.45345428201895)"><circle class="outline" cx="0" cy="0" r="40" fill="#68BDF6" stroke="#5CA8DB" stroke-width="2px"/><text text-anchor="middle" pointer-events="none" font-family="sans-serif" dy="2.5" font-size="40" fill="#FFFFFF"/><text text-anchor="middle" pointer-events="none" y="5" font-size="10px" fill="#FFFFFF" font-family="sans-serif"> Doncaster (9)</text></g><g class="node" transform="translate(186.57201944459018,-216.29285959799)"><circle class="outline" cx="0" cy="0" r="40" fill="#68BDF6" stroke="#5CA8DB" stroke-width="2px"/><text text-anchor="middle" pointer-events="none" font-family="sans-serif" dy="2.5" font-size="40" fill="#FFFFFF"/><text text-anchor="middle" pointer-events="none" y="5" font-size="10px" fill="#FFFFFF" font-family="sans-serif"> Den Haag (1)</text></g><g class="node" transform="translate(168.4158568295427,-92.13412229952526)"><circle class="outline" cx="0" cy="0" r="40" fill="#68BDF6" stroke="#5CA8DB" stroke-width="2px"/><text text-anchor="middle" pointer-events="none" font-family="sans-serif" dy="2.5" font-size="40" fill="#FFFFFF"/><text text-anchor="middle" pointer-events="none" y="5" font-size="10px" fill="#FFFFFF" font-family="sans-serif"> Rotterdam (4)</text></g><g class="node" transform="translate(298.3568961816578,-92.90990473575572)"><circle class="outline" cx="0" cy="0" r="40" fill="#68BDF6" stroke="#5CA8DB" stroke-width="2px"/><text text-anchor="middle" pointer-events="none" font-family="sans-serif" dy="2.5" font-size="40" fill="#FFFFFF"/><text text-anchor="middle" pointer-events="none" y="5" font-size="40" fill="#FFFFFF" dy="2.5" font-family="sans-serif"/><text text-anchor="middle" pointer-events="none" y="0" font-size="10px" fill="#FFFFFF" font-family="sans-serif"> Hoek van</text><text text-anchor="middle" pointer-events="none" y="10" font-size="10px" fill="#FFFFFF" font-family="sans-serif"> Holland (5)</text></g><g class="node" transform="translate(27.687605223754446,-94.01314648623449)"><circle class="outline" cx="0" cy="0" r="40" fill="#68BDF6" stroke="#5CA8DB" stroke-width="2px"/><text text-anchor="middle" pointer-events="none" font-family="sans-serif" dy="2.5" font-size="40" fill="#FFFFFF"/><text text-anchor="middle" pointer-events="none" y="5" font-size="10px" fill="#FFFFFF" font-family="sans-serif"> Gouda (3)</text></g><g class="node" transform="translate(-126.58538891038899,-93.36608455472305)"><circle class="outline" cx="0" cy="0" r="40" fill="#68BDF6" stroke="#5CA8DB" stroke-width="2px"/><text text-anchor="middle" pointer-events="none" font-family="sans-serif" dy="2.5" font-size="40" fill="#FFFFFF"/><text text-anchor="middle" pointer-events="none" y="5" font-size="10px" fill="#FFFFFF" font-family="sans-serif"> Amsterdam (2)</text></g><g class="node" transform="translate(100.81752004545359,24.834688500137773)"><circle class="outline" cx="0" cy="0" r="40" fill="#68BDF6" stroke="#5CA8DB" stroke-width="2px"/><text text-anchor="middle" pointer-events="none" font-family="sans-serif" dy="2.5" font-size="40" fill="#FFFFFF"/><text text-anchor="middle" pointer-events="none" y="5" font-size="10px" fill="#FFFFFF" font-family="sans-serif"> Utrecht (7)</text></g><g class="node" transform="translate(-68.45721664461482,25.67734837962732)"><circle class="outline" cx="0" cy="0" r="40" fill="#68BDF6" stroke="#5CA8DB" stroke-width="2px"/><text text-anchor="middle" pointer-events="none" font-family="sans-serif" dy="2.5" font-size="40" fill="#FFFFFF"/><text text-anchor="middle" pointer-events="none" y="5" font-size="10px" fill="#FFFFFF" font-family="sans-serif"> Immingham (6)</text></g></g></svg>