<svg xmlns="http://www.w3.org/2000/svg" width="827.8140869140625" height="600.4732666015625" viewBox="-268.2966003417969 -232.97894287109375 827.8140869140625 600.4732666015625"><title>Neo4j Graph Visualization</title><desc>Created using Neo4j (http://www.neo4j.com/)</desc><g class="layer relationships"><g class="relationship" transform="translate(104.45389130178756 171.31283365472865) rotate(343.34794761017224)"><path class="outline" fill="#A5ABB6" stroke="none" d="M 40 0.5 L 131.69601039190067 0.5 L 131.69601039190067 -0.5 L 40 -0.5 Z M 192.82101039190067 0.5 L 284.51702078380134 0.5 L 284.51702078380134 3.5 L 291.51702078380134 0 L 284.51702078380134 -3.5 L 284.51702078380134 -0.5 L 192.82101039190067 -0.5 Z"/><text text-anchor="middle" pointer-events="none" font-size="8px" fill="#000000" x="162.25851039190067" y="3" font-family="sans-serif">DEPENDS_ON</text></g><g class="relationship" transform="translate(163.2899452178798 78.4022339315978) rotate(359.53758769140495)"><path class="outline" fill="#A5ABB6" stroke="none" d="M 40 0.5 L 95.33072230736019 0.5 L 95.33072230736019 -0.5 L 40 -0.5 Z M 156.4557223073602 0.5 L 211.78644461472038 0.5 L 211.78644461472038 3.5 L 218.78644461472038 0 L 211.78644461472038 -3.5 L 211.78644461472038 -0.5 L 156.4557223073602 -0.5 Z"/><text text-anchor="middle" pointer-events="none" font-size="8px" fill="#000000" x="125.89322230736019" y="3" font-family="sans-serif">DEPENDS_ON</text></g><g class="relationship" transform="translate(327.90062147855497 -93.93313264501357) rotate(359.19877406509727)"><path class="outline" fill="#A5ABB6" stroke="none" d="M 40 0.5 L 59.75513414404469 0.5 L 59.75513414404469 -0.5 L 40 -0.5 Z M 120.88013414404469 0.5 L 140.63526828808938 0.5 L 140.63526828808938 3.5 L 147.63526828808938 0 L 140.63526828808938 -3.5 L 140.63526828808938 -0.5 L 120.88013414404469 -0.5 Z"/><text text-anchor="middle" pointer-events="none" font-size="8px" fill="#000000" x="90.31763414404469" y="3" font-family="sans-serif">DEPENDS_ON</text></g><g class="relationship" transform="translate(263.94864420711843 -188.9789389451886) rotate(537.3279767719785)"><path class="outline" fill="#A5ABB6" stroke="none" d="M 40 0.5 L 87.53182818652671 0.5 L 87.53182818652671 -0.5 L 40 -0.5 Z M 148.6568281865267 0.5 L 196.18865637305342 0.5 L 196.18865637305342 3.5 L 203.18865637305342 0 L 196.18865637305342 -3.5 L 196.18865637305342 -0.5 L 148.6568281865267 -0.5 Z"/><text text-anchor="middle" pointer-events="none" font-size="8px" fill="#000000" x="118.09432818652671" y="3" transform="rotate(180 118.09432818652671 0)" font-family="sans-serif">DEPENDS_ON</text></g><g class="relationship" transform="translate(263.94864420711843 -188.9789389451886) rotate(452.690368669541)"><path class="outline" fill="#A5ABB6" stroke="none" d="M 40 0.5 L 56.058116314567684 0.5 L 56.058116314567684 -0.5 L 40 -0.5 Z M 117.18311631456768 0.5 L 133.24123262913537 0.5 L 133.24123262913537 3.5 L 140.24123262913537 0 L 133.24123262913537 -3.5 L 133.24123262913537 -0.5 L 117.18311631456768 -0.5 Z"/><text text-anchor="middle" pointer-events="none" font-size="8px" fill="#000000" x="86.62061631456768" y="3" transform="rotate(180 86.62061631456768 0)" font-family="sans-serif">DEPENDS_ON</text></g><g class="relationship" transform="translate(21.024392915998362 -177.64179983605715) rotate(404.0590229250888)"><path class="outline" fill="#A5ABB6" stroke="none" d="M 40 0.5 L 56.72931723204266 0.5 L 56.72931723204266 -0.5 L 40 -0.5 Z M 117.85431723204266 0.5 L 134.58363446408532 0.5 L 134.58363446408532 3.5 L 141.58363446408532 0 L 134.58363446408532 -3.5 L 134.58363446408532 -0.5 L 117.85431723204266 -0.5 Z"/><text text-anchor="middle" pointer-events="none" font-size="8px" fill="#000000" x="87.29181723204266" y="3" font-family="sans-serif">DEPENDS_ON</text></g><g class="relationship" transform="translate(263.94864420711843 -188.9789389451886) rotate(489.25041429148695)"><path class="outline" fill="#A5ABB6" stroke="none" d="M 40 0.5 L 54.78844377437174 0.5 L 54.78844377437174 -0.5 L 40 -0.5 Z M 115.91344377437174 0.5 L 130.70188754874349 0.5 L 130.70188754874349 3.5 L 137.70188754874349 0 L 130.70188754874349 -3.5 L 130.70188754874349 -0.5 L 115.91344377437174 -0.5 Z"/><text text-anchor="middle" pointer-events="none" font-size="8px" fill="#000000" x="85.35094377437174" y="3" transform="rotate(180 85.35094377437174 0)" font-family="sans-serif">DEPENDS_ON</text></g><g class="relationship" transform="translate(21.024392915998362 -177.64179983605715) rotate(498.0406308092912)"><path class="outline" fill="#A5ABB6" stroke="none" d="M 40 0.5 L 75.25579528419881 0.5 L 75.25579528419881 -0.5 L 40 -0.5 Z M 136.38079528419883 0.5 L 171.63659056839762 0.5 L 171.63659056839762 3.5 L 178.63659056839762 0 L 171.63659056839762 -3.5 L 171.63659056839762 -0.5 L 136.38079528419883 -0.5 Z"/><text text-anchor="middle" pointer-events="none" font-size="8px" fill="#000000" x="105.81829528419881" y="3" transform="rotate(180 105.81829528419881 0)" font-family="sans-serif">DEPENDS_ON</text></g><g class="relationship" transform="translate(-141.5579620207783 -31.460622529999355) rotate(388.76805932369757)"><path class="outline" fill="#A5ABB6" stroke="none" d="M 40 0.5 L 42.073113080997246 0.5 L 42.073113080997246 -0.5 L 40 -0.5 Z M 94.74889433099725 0.5 L 96.82200741199449 0.5 L 96.82200741199449 3.5 L 103.82200741199449 0 L 96.82200741199449 -3.5 L 96.82200741199449 -0.5 L 94.74889433099725 -0.5 Z"/><text text-anchor="middle" pointer-events="none" font-size="8px" fill="#000000" x="68.41100370599725" y="3" font-family="sans-serif">DEPENDS…</text></g><g class="relationship" transform="translate(255.48838421921934 -8.936371921144932) rotate(530.223273401831)"><path class="outline" fill="#A5ABB6" stroke="none" d="M 40 0.5 L 103.4219703790861 0.5 L 103.4219703790861 -0.5 L 40 -0.5 Z M 164.5469703790861 0.5 L 227.9689407581722 0.5 L 227.9689407581722 3.5 L 234.9689407581722 0 L 227.9689407581722 -3.5 L 227.9689407581722 -0.5 L 164.5469703790861 -0.5 Z"/><text text-anchor="middle" pointer-events="none" font-size="8px" fill="#000000" x="133.9844703790861" y="3" transform="rotate(180 133.9844703790861 0)" font-family="sans-serif">DEPENDS_ON</text></g><g class="relationship" transform="translate(-92.72509911509304 277.9026055050715) rotate(375.5630582325667)"><path class="outline" fill="#A5ABB6" stroke="none" d="M 40 0.5 L 50.901905533012226 0.5 L 50.901905533012226 -0.5 L 40 -0.5 Z M 112.02690553301223 0.5 L 122.92881106602445 0.5 L 122.92881106602445 3.5 L 129.92881106602445 0 L 122.92881106602445 -3.5 L 122.92881106602445 -0.5 L 112.02690553301223 -0.5 Z"/><text text-anchor="middle" pointer-events="none" font-size="8px" fill="#000000" x="81.46440553301223" y="3" font-family="sans-serif">DEPENDS_ON</text></g><g class="relationship" transform="translate(104.45389130178756 171.31283365472865) rotate(462.4076230773334)"><path class="outline" fill="#A5ABB6" stroke="none" d="M 40 0.5 L 43.847930015575784 0.5 L 43.847930015575784 -0.5 L 40 -0.5 Z M 104.97293001557578 0.5 L 108.82086003115157 0.5 L 108.82086003115157 3.5 L 115.82086003115157 0 L 108.82086003115157 -3.5 L 108.82086003115157 -0.5 L 104.97293001557578 -0.5 Z"/><text text-anchor="middle" pointer-events="none" font-size="8px" fill="#000000" x="74.41043001557578" y="3" transform="rotate(180 74.41043001557578 0)" font-family="sans-serif">DEPENDS_ON</text></g><g class="relationship" transform="translate(281.6963982206323 322.5269418153374) rotate(539.7369776493742)"><path class="outline" fill="#A5ABB6" stroke="none" d="M 40 0.5 L 71.30010917702621 0.5 L 71.30010917702621 -0.5 L 40 -0.5 Z M 132.42510917702623 0.5 L 163.72521835405243 0.5 L 163.72521835405243 3.5 L 170.72521835405243 0 L 163.72521835405243 -3.5 L 163.72521835405243 -0.5 L 132.42510917702623 -0.5 Z"/><text text-anchor="middle" pointer-events="none" font-size="8px" fill="#000000" x="101.86260917702621" y="3" transform="rotate(180 101.86260917702621 0)" font-family="sans-serif">DEPENDS_ON</text></g><g class="relationship" transform="translate(163.2899452178798 78.4022339315978) rotate(533.4852474869497)"><path class="outline" fill="#A5ABB6" stroke="none" d="M 40 0.5 L 160.9902935242967 0.5 L 160.9902935242967 -0.5 L 40 -0.5 Z M 222.1152935242967 0.5 L 343.1055870485934 0.5 L 343.1055870485934 3.5 L 350.1055870485934 0 L 343.1055870485934 -3.5 L 343.1055870485934 -0.5 L 222.1152935242967 -0.5 Z"/><text text-anchor="middle" pointer-events="none" font-size="8px" fill="#000000" x="191.5527935242967" y="3" transform="rotate(180 191.5527935242967 0)" font-family="sans-serif">DEPENDS_ON</text></g><g class="relationship" transform="translate(-92.72509911509304 277.9026055050715) rotate(229.7174051898594)"><path class="outline" fill="#A5ABB6" stroke="none" d="M 40 0.5 L 67.68513161949912 0.5 L 67.68513161949912 -0.5 L 40 -0.5 Z M 128.81013161949912 0.5 L 156.49526323899823 0.5 L 156.49526323899823 3.5 L 163.49526323899823 0 L 156.49526323899823 -3.5 L 156.49526323899823 -0.5 L 128.81013161949912 -0.5 Z"/><text text-anchor="middle" pointer-events="none" font-size="8px" fill="#000000" x="98.24763161949912" y="3" transform="rotate(180 98.24763161949912 0)" font-family="sans-serif">DEPENDS_ON</text></g><g class="relationship" transform="translate(104.45389130178756 171.31283365472865) rotate(188.41772880761084)"><path class="outline" fill="#A5ABB6" stroke="none" d="M 40 0.5 L 132.10283254082063 0.5 L 132.10283254082063 -0.5 L 40 -0.5 Z M 193.22783254082063 0.5 L 285.33066508164126 0.5 L 285.33066508164126 3.5 L 292.33066508164126 0 L 285.33066508164126 -3.5 L 285.33066508164126 -0.5 L 193.22783254082063 -0.5 Z"/><text text-anchor="middle" pointer-events="none" font-size="8px" fill="#000000" x="162.66533254082063" y="3" transform="rotate(180 162.66533254082063 0)" font-family="sans-serif">DEPENDS_ON</text></g><g class="relationship" transform="translate(104.45389130178756 171.31283365472865) rotate(400.46908979064557)"><path class="outline" fill="#A5ABB6" stroke="none" d="M 40 0.5 L 82.42850047394758 0.5 L 82.42850047394758 -0.5 L 40 -0.5 Z M 143.55350047394757 0.5 L 185.98200094789516 0.5 L 185.98200094789516 3.5 L 192.98200094789516 0 L 185.98200094789516 -3.5 L 185.98200094789516 -0.5 L 143.55350047394757 -0.5 Z"/><text text-anchor="middle" pointer-events="none" font-size="8px" fill="#000000" x="112.99100047394758" y="3" font-family="sans-serif">DEPENDS_ON</text></g><g class="relationship" transform="translate(163.2899452178798 78.4022339315978) rotate(424.1254805162596)"><path class="outline" fill="#A5ABB6" stroke="none" d="M 40 0.5 L 101.59972863422067 0.5 L 101.59972863422067 -0.5 L 40 -0.5 Z M 162.72472863422067 0.5 L 224.32445726844134 0.5 L 224.32445726844134 3.5 L 231.32445726844134 0 L 224.32445726844134 -3.5 L 224.32445726844134 -0.5 L 162.72472863422067 -0.5 Z"/><text text-anchor="middle" pointer-events="none" font-size="8px" fill="#000000" x="132.16222863422067" y="3" font-family="sans-serif">DEPENDS_ON</text></g></g><g class="layer nodes"><g class="node" transform="translate(104.45389130178756,171.31283365472865)"><circle class="outline" cx="0" cy="0" r="40" fill="#FFD86E" stroke="#EDBA39" stroke-width="2px"/><text text-anchor="middle" pointer-events="none" font-family="sans-serif" dy="2.5" font-size="40" fill="#604A0E"/><text text-anchor="middle" pointer-events="none" y="5" font-size="10px" fill="#604A0E" font-family="sans-serif"> matplotlib</text></g><g class="node" transform="translate(422.06796186848806,76.31369025112548)"><circle class="outline" cx="0" cy="0" r="40" fill="#A5ABB6" stroke="#9AA1AC" stroke-width="2px"/><text text-anchor="middle" pointer-events="none" font-family="sans-serif" dy="2.5" font-size="40" fill="#000000"/><text text-anchor="middle" pointer-events="none" y="5" font-size="10px" fill="#000000" font-family="sans-serif"> pytz</text></g><g class="node" transform="translate(163.2899452178798,78.4022339315978)"><circle class="outline" cx="0" cy="0" r="40" fill="#A5ABB6" stroke="#9AA1AC" stroke-width="2px"/><text text-anchor="middle" pointer-events="none" font-family="sans-serif" dy="2.5" font-size="40" fill="#000000"/><text text-anchor="middle" pointer-events="none" y="5" font-size="10px" fill="#000000" font-family="sans-serif"> pandas</text></g><g class="node" transform="translate(327.90062147855497,-93.93313264501357)"><circle class="outline" cx="0" cy="0" r="40" fill="#A5ABB6" stroke="#9AA1AC" stroke-width="2px"/><text text-anchor="middle" pointer-events="none" font-family="sans-serif" dy="2.5" font-size="40" fill="#000000"/><text text-anchor="middle" pointer-events="none" y="5" font-size="10px" fill="#000000" font-family="sans-serif"> pyspark</text></g><g class="node" transform="translate(515.5175437352722,-96.55694446376285)"><circle class="outline" cx="0" cy="0" r="40" fill="#A5ABB6" stroke="#9AA1AC" stroke-width="2px"/><text text-anchor="middle" pointer-events="none" font-family="sans-serif" dy="2.5" font-size="40" fill="#000000"/><text text-anchor="middle" pointer-events="none" y="5" font-size="10px" fill="#000000" font-family="sans-serif"> py4j</text></g><g class="node" transform="translate(263.94864420711843,-188.9789389451886)"><circle class="outline" cx="0" cy="0" r="40" fill="#FFD86E" stroke="#EDBA39" stroke-width="2px"/><text text-anchor="middle" pointer-events="none" font-family="sans-serif" dy="2.5" font-size="40" fill="#604A0E"/><text text-anchor="middle" pointer-events="none" y="5" font-size="10px" fill="#604A0E" font-family="sans-serif"> jupyter</text></g><g class="node" transform="translate(21.024392915998362,-177.64179983605715)"><circle class="outline" cx="0" cy="0" r="40" fill="#FFD86E" stroke="#EDBA39" stroke-width="2px"/><text text-anchor="middle" pointer-events="none" font-family="sans-serif" dy="2.5" font-size="40" fill="#604A0E"/><text text-anchor="middle" pointer-events="none" y="5" font-size="10px" fill="#604A0E" font-family="sans-serif"> jpy-console</text></g><g class="node" transform="translate(255.48838421921934,-8.936371921144932)"><circle class="outline" cx="0" cy="0" r="40" fill="#A5ABB6" stroke="#9AA1AC" stroke-width="2px"/><text text-anchor="middle" pointer-events="none" font-family="sans-serif" dy="2.5" font-size="40" fill="#000000"/><text text-anchor="middle" pointer-events="none" y="5" font-size="10px" fill="#000000" font-family="sans-serif"> nbconvert</text></g><g class="node" transform="translate(151.51471803129223,-51.36871736599363)"><circle class="outline" cx="0" cy="0" r="40" fill="#FFD86E" stroke="#EDBA39" stroke-width="2px"/><text text-anchor="middle" pointer-events="none" font-family="sans-serif" dy="2.5" font-size="40" fill="#604A0E"/><text text-anchor="middle" pointer-events="none" y="5" font-size="10px" fill="#604A0E" font-family="sans-serif"> ipykernel</text></g><g class="node" transform="translate(-141.5579620207783,-31.460622529999355)"><circle class="outline" cx="0" cy="0" r="40" fill="#A5ABB6" stroke="#9AA1AC" stroke-width="2px"/><text text-anchor="middle" pointer-events="none" font-family="sans-serif" dy="2.5" font-size="40" fill="#000000"/><text text-anchor="middle" pointer-events="none" y="5" font-size="10px" fill="#000000" font-family="sans-serif"> jpy-client</text></g><g class="node" transform="translate(-15.487170474797573,37.75588803637978)"><circle class="outline" cx="0" cy="0" r="40" fill="#A5ABB6" stroke="#9AA1AC" stroke-width="2px"/><text text-anchor="middle" pointer-events="none" font-family="sans-serif" dy="2.5" font-size="40" fill="#000000"/><text text-anchor="middle" pointer-events="none" y="5" font-size="10px" fill="#000000" font-family="sans-serif"> jpy-core</text></g><g class="node" transform="translate(-92.72509911509304,277.9026055050715)"><circle class="outline" cx="0" cy="0" r="40" fill="#A5ABB6" stroke="#9AA1AC" stroke-width="2px"/><text text-anchor="middle" pointer-events="none" font-family="sans-serif" dy="2.5" font-size="40" fill="#000000"/><text text-anchor="middle" pointer-events="none" y="5" font-size="10px" fill="#000000" font-family="sans-serif"> spacy</text></g><g class="node" transform="translate(70.9734002388703,323.49429487466057)"><circle class="outline" cx="0" cy="0" r="40" fill="#FFD86E" stroke="#EDBA39" stroke-width="2px"/><text text-anchor="middle" pointer-events="none" font-family="sans-serif" dy="2.5" font-size="40" fill="#604A0E"/><text text-anchor="middle" pointer-events="none" y="5" font-size="10px" fill="#604A0E" font-family="sans-serif"> six</text></g><g class="node" transform="translate(281.6963982206323,322.5269418153374)"><circle class="outline" cx="0" cy="0" r="40" fill="#FFD86E" stroke="#EDBA39" stroke-width="2px"/><text text-anchor="middle" pointer-events="none" font-family="sans-serif" dy="2.5" font-size="40" fill="#604A0E"/><text text-anchor="middle" pointer-events="none" y="5" font-size="10px" fill="#604A0E" font-family="sans-serif"> python-dateutil</text></g><g class="node" transform="translate(-224.29660334376183,122.6632373160887)"><circle class="outline" cx="0" cy="0" r="40" fill="#A5ABB6" stroke="#9AA1AC" stroke-width="2px"/><text text-anchor="middle" pointer-events="none" font-family="sans-serif" dy="2.5" font-size="40" fill="#000000"/><text text-anchor="middle" pointer-events="none" y="5" font-size="10px" fill="#000000" font-family="sans-serif"> numpy</text></g></g></svg>
