<svg xmlns="http://www.w3.org/2000/svg" width="581.806884765625" height="221.94677734375" viewBox="-349.7707824707031 -7.837657928466797 581.806884765625 221.94677734375"><title>Neo4j Graph Visualization</title><desc>Created using Neo4j (http://www.neo4j.com/)</desc><g class="layer relationships"><g class="relationship" transform="translate(-305.7707846949297 83.76218865452597) rotate(385.7791737827431)"><path class="outline" fill="#A5ABB6" stroke="none" d="M 40 0.5 L 89.09745809700942 0.5 L 89.09745809700942 -0.5 L 40 -0.5 Z M 108.44511434700942 0.5 L 157.54257244401884 0.5 L 157.54257244401884 0.5 L 158.54257244401884 0 L 157.54257244401884 -0.5 L 157.54257244401884 -0.5 L 108.44511434700942 -0.5 Z"/><text text-anchor="middle" pointer-events="none" font-size="8px" fill="#000000" x="98.77128622200942" y="3" font-family="sans-serif">369</text></g><g class="relationship" transform="translate(-126.98778208832692 170.1091113075999) rotate(342.14565991231075)"><path class="outline" fill="#A5ABB6" stroke="none" d="M 40 0.5 L 83.80911452198488 0.5 L 83.80911452198488 -0.5 L 40 -0.5 Z M 98.70755202198488 0.5 L 142.51666654396976 0.5 L 142.51666654396976 0.5 L 143.51666654396976 0 L 142.51666654396976 -0.5 L 142.51666654396976 -0.5 L 98.70755202198488 -0.5 Z"/><text text-anchor="middle" pointer-events="none" font-size="8px" fill="#000000" x="91.25833327198488" y="3" font-family="sans-serif">74</text></g><g class="relationship" transform="translate(47.69054544151961 113.84323540767058) rotate(331.03558496733115)"><path class="outline" fill="#A5ABB6" stroke="none" d="M 40 0.5 L 70.03089663786692 0.5 L 70.03089663786692 -0.5 L 40 -0.5 Z M 89.37855288786692 0.5 L 119.40944952573383 0.5 L 119.40944952573383 0.5 L 120.40944952573383 0 L 119.40944952573383 -0.5 L 119.40944952573383 -0.5 L 89.37855288786692 -0.5 Z"/><text text-anchor="middle" pointer-events="none" font-size="8px" fill="#000000" x="79.70472476286692" y="3" font-family="sans-serif">277</text></g></g><g class="layer nodes"><g class="node" transform="translate(-305.7707846949297,83.76218865452597)"><circle class="outline" cx="0" cy="0" r="40" fill="#FF756E" stroke="#E06760" stroke-width="2px"/><text text-anchor="middle" pointer-events="none" font-family="sans-serif" dy="2.5" font-size="40" fill="#000000"/><text text-anchor="middle" pointer-events="none" y="5" font-size="10px" fill="#000000" font-family="sans-serif"> Amsterdam</text></g><g class="node" transform="translate(-126.98778208832692,170.1091113075999)"><circle class="outline" cx="0" cy="0" r="40" fill="#FF756E" stroke="#E06760" stroke-width="2px"/><text text-anchor="middle" pointer-events="none" font-family="sans-serif" dy="2.5" font-size="40" fill="#000000"/><text text-anchor="middle" pointer-events="none" y="5" font-size="10px" fill="#000000" font-family="sans-serif"> Immingham</text></g><g class="node" transform="translate(47.69054544151961,113.84323540767058)"><circle class="outline" cx="0" cy="0" r="40" fill="#FF756E" stroke="#E06760" stroke-width="2px"/><text text-anchor="middle" pointer-events="none" font-family="sans-serif" dy="2.5" font-size="40" fill="#000000"/><text text-anchor="middle" pointer-events="none" y="5" font-size="10px" fill="#000000" font-family="sans-serif"> Doncaster</text></g><g class="node" transform="translate(188.03608392229245,36.16234119493086)"><circle class="outline" cx="0" cy="0" r="40" fill="#FF756E" stroke="#E06760" stroke-width="2px"/><text text-anchor="middle" pointer-events="none" font-family="sans-serif" dy="2.5" font-size="40" fill="#000000"/><text text-anchor="middle" pointer-events="none" y="5" font-size="10px" fill="#000000" font-family="sans-serif"> London</text></g></g></svg>
